<svg xmlns="http://www.w3.org/2000/svg" width="342.167" height="188" viewBox="0 0 342.167 188">
  <g id="Group_12516" data-name="Group 12516" transform="translate(-17 -275)">
    <g id="Group_9233" data-name="Group 9233" transform="translate(17.049 220.385)">
      <path id="Path_12078" data-name="Path 12078" d="M-.049,238.959c16.7-18.2,34.5-36.652,52.3-55.1,9.907-10.27,20.633-21.017,34.543-24.2,14-3.2,28.568,1.954,41.194,8.789,37.864,20.5,65.3,55.507,97.41,84.187a12.485,12.485,0,0,0,4.962,3.158c3.677.939,7.3-1.5,10.212-3.931,9.57-7.98,47.461-37.622,56.731-44.725,14.472-11.089,27.014-26.411,44.812-30.363V295.818H-.049Z" transform="translate(0 -53.203)" fill="#ebecf2"/>
      <path id="Path_12079" data-name="Path 12079" d="M146.342,54.709a57.267,57.267,0,0,0-23.38,3.837c-2.737,1.008-16.68,4.394-9.564,9.317,2.022,1.4,4.692,1.262,7.143,1.069,14.59-1.146,28.847-1.918,43.2-3.719,14.069-1.765,27.853,4.581,42,5.542a55.924,55.924,0,0,0,27.617-5.242,3.674,3.674,0,0,0,2.014-1.688,3.136,3.136,0,0,0-.741-2.946c-2.2-2.879-6.061-4.058-9.685-4s-7.137,1.158-10.652,2.041A90.61,90.61,0,0,1,168.8,58.5,110.6,110.6,0,0,0,146.342,54.709Z" transform="translate(-56.974)" fill="#ebecf2"/>
      <path id="Path_12080" data-name="Path 12080" d="M380.465,133.84a32.009,32.009,0,0,0-13.066,2.145c-1.53.563-9.322,2.456-5.345,5.207a6.105,6.105,0,0,0,3.992.6c8.154-.64,16.121-1.072,24.143-2.078,7.862-.987,15.566,2.56,23.471,3.1a31.26,31.26,0,0,0,15.435-2.929,2.053,2.053,0,0,0,1.125-.944,1.752,1.752,0,0,0-.414-1.646,6.625,6.625,0,0,0-5.413-2.237,26.4,26.4,0,0,0-5.953,1.14,50.638,50.638,0,0,1-25.425-.234A61.83,61.83,0,0,0,380.465,133.84Z" transform="translate(-184.544 -40.475)" fill="#ebecf2"/>
    </g>
    <g id="Group_9232" data-name="Group 9232" transform="translate(-384.462 297.572)" opacity="0.9">
      <rect id="Rectangle_11276" data-name="Rectangle 11276" width="9.727" height="55.23" transform="translate(596.462 157.028) rotate(180)" fill="#fff"/>
      <rect id="Rectangle_11277" data-name="Rectangle 11277" width="12.36" height="27.192" transform="translate(583.195 157.028) rotate(180)" fill="#fff"/>
      <rect id="Rectangle_11278" data-name="Rectangle 11278" width="17.386" height="19.353" transform="translate(573.656 155.768) rotate(180)" fill="#fff"/>
      <rect id="Rectangle_11279" data-name="Rectangle 11279" width="15.102" height="19.641" transform="translate(519.089 157.028) rotate(180)" fill="#fff"/>
      <rect id="Rectangle_11280" data-name="Rectangle 11280" width="189" height="22.001" transform="translate(596.462 165.428) rotate(180)" fill="#fff"/>
      <path id="Path_12068" data-name="Path 12068" d="M745.409,180.215h-14.28V128.4l14.28,4.2Z" transform="translate(-187.727 -23.188)" fill="#fff"/>
      <rect id="Rectangle_11281" data-name="Rectangle 11281" width="14.28" height="46.352" transform="translate(556.901 157.028) rotate(180)" fill="#fff"/>
      <path id="Path_12069" data-name="Path 12069" d="M558.11,189.43H543.83V144.29l14.28,2.94Z" transform="translate(-79.093 -32.402)" fill="#fff"/>
      <rect id="Rectangle_11282" data-name="Rectangle 11282" width="14.28" height="27.802" transform="translate(507.014 157.448) rotate(180)" fill="#fff"/>
      <path id="Path_12070" data-name="Path 12070" d="M427.882,191.525H413.6V147.9l14.28,4.2Z" transform="translate(-3.561 -34.498)" fill="#fff"/>
      <g id="Group_9231" data-name="Group 9231" transform="translate(415.717 98.392)">
        <path id="Path_12071" data-name="Path 12071" d="M446.462,112.155v49.059c0,2.727,4.735,4.957,10.522,4.957v-1.516c5.787,0,10.522-.714,10.522-3.441V112.575Z" transform="translate(-438.337 -112.155)" fill="#fff"/>
        <path id="Path_12072" data-name="Path 12072" d="M431.542,135.432a4.438,4.438,0,0,0-4.425,4.425v43.79a4.425,4.425,0,0,0,8.85,0v-43.79A4.438,4.438,0,0,0,431.542,135.432Z" transform="translate(-427.117 -125.656)" fill="#fff"/>
      </g>
      <path id="Path_12073" data-name="Path 12073" d="M694.823,175.472h0a4.438,4.438,0,0,1-4.425-4.425v-31.19a4.438,4.438,0,0,1,4.425-4.425h0a4.438,4.438,0,0,1,4.425,4.425v31.19A4.438,4.438,0,0,1,694.823,175.472Z" transform="translate(-164.103 -27.264)" fill="#fff"/>
      <path id="Rectangle_11283" data-name="Rectangle 11283" d="M0,0H23.074a0,0,0,0,1,0,0V21.528A23.074,23.074,0,0,1,0,44.6H0a0,0,0,0,1,0,0V0A0,0,0,0,1,0,0Z" transform="translate(462.808 145.408) rotate(180)" fill="#fff"/>
      <path id="Path_12074" data-name="Path 12074" d="M812.584,174.75h0a.624.624,0,0,0,.622-.622V159.38a.624.624,0,0,0-.622-.622h0a.624.624,0,0,0-.622.622v14.748A.624.624,0,0,0,812.584,174.75Z" transform="translate(-234.61 -40.793)" fill="#fff"/>
      <path id="Path_12075" data-name="Path 12075" d="M525.781,114.917h0a.624.624,0,0,0,.622-.622V99.547a.624.624,0,0,0-.622-.622h0a.624.624,0,0,0-.622.622V114.3A.624.624,0,0,0,525.781,114.917Z" transform="translate(-68.264 -6.09)" fill="#fff"/>
      <path id="Path_12076" data-name="Path 12076" d="M480.441,119.917h0a.624.624,0,0,0,.622-.622V104.547a.624.624,0,0,0-.622-.622h0a.624.624,0,0,0-.622.622V119.3A.624.624,0,0,0,480.441,119.917Z" transform="translate(-41.967 -8.99)" fill="#fff"/>
      <path id="Path_12077" data-name="Path 12077" d="M475.3,104.417h0a.624.624,0,0,0,.622-.622V89.047a.624.624,0,0,0-.622-.622h0a.624.624,0,0,0-.622.622V103.8A.624.624,0,0,0,475.3,104.417Z" transform="translate(-38.988 0)" fill="#fff"/>
    </g>
    <g id="Group_9230" data-name="Group 9230" transform="translate(-13.727 156.825)">
      <rect id="Rectangle_11267" data-name="Rectangle 11267" width="6.661" height="115.189" transform="translate(80.654 297.443) rotate(180)" fill="#ff9800"/>
      <rect id="Rectangle_11268" data-name="Rectangle 11268" width="6.661" height="62.876" transform="translate(73.993 182.254)" fill="#3a1500"/>
      <rect id="Rectangle_11269" data-name="Rectangle 11269" width="16.397" height="72.467" transform="translate(61.249 203.144)" fill="#d54255"/>
      <rect id="Rectangle_11270" data-name="Rectangle 11270" width="16.397" height="41.986" transform="translate(61.249 203.144)" fill="#ff9800"/>
      <rect id="Rectangle_11271" data-name="Rectangle 11271" width="6.661" height="115.189" transform="translate(64.579 297.443) rotate(180)" fill="#333"/>
      <rect id="Rectangle_11272" data-name="Rectangle 11272" width="6.661" height="62.876" transform="translate(57.918 182.254)" fill="#d54255"/>
      <g id="Group_9229" data-name="Group 9229" transform="translate(57.919 181.505)">
        <path id="Path_12066" data-name="Path 12066" d="M148.1,206.544h-6.358a18.7,18.7,0,0,0-18.68-18.68H71.559v-6.359h51.508A25.067,25.067,0,0,1,148.1,206.544Z" transform="translate(-65.933 -181.505)" fill="#d54255"/>
        <path id="Path_12067" data-name="Path 12067" d="M141.1,206.544h-6.358a18.7,18.7,0,0,0-18.68-18.68H64.559v-6.359h51.508A25.067,25.067,0,0,1,141.1,206.544Z" transform="translate(-64.559 -181.505)" fill="#d54255" stroke="#922568" stroke-width="1"/>
      </g>
      <rect id="Rectangle_11273" data-name="Rectangle 11273" width="115.792" height="8.731" transform="translate(146.519 306.175) rotate(180)" fill="#333"/>
      <rect id="Rectangle_11274" data-name="Rectangle 11274" width="15.441" height="35.467" transform="translate(39.226 261.976)" fill="#333"/>
      <rect id="Rectangle_11275" data-name="Rectangle 11275" width="5.753" height="35.467" transform="translate(41.345 262.78)" fill="#d54255"/>
    </g>
    <g id="Group_9239" data-name="Group 9239" transform="translate(-304.357 320.623)">
      <g id="Group_9236" data-name="Group 9236" transform="translate(616.357 78.958)">
        <rect id="Rectangle_11284" data-name="Rectangle 11284" width="1.502" height="47.871" transform="translate(4.677 14.549)" fill="#333"/>
        <path id="Rectangle_11285" data-name="Rectangle 11285" d="M5.428,0h0a5.428,5.428,0,0,1,5.428,5.428v6.114A5.428,5.428,0,0,1,5.428,16.97h0A5.428,5.428,0,0,1,0,11.542V5.428A5.428,5.428,0,0,1,5.428,0Z" transform="translate(0 0)" fill="#333"/>
      </g>
      <g id="Group_9238" data-name="Group 9238" transform="translate(619.571 82.182)">
        <circle id="Ellipse_10545" data-name="Ellipse 10545" cx="2.214" cy="2.214" r="2.214" transform="translate(0)" fill="#fbbe2f"/>
        <g id="Group_9237" data-name="Group 9237" transform="translate(0 6.092)">
          <circle id="Ellipse_10546" data-name="Ellipse 10546" cx="2.214" cy="2.214" r="2.214" fill="#fbbe2f"/>
          <path id="Path_12081" data-name="Path 12081" d="M641.315,136.622c.019,0,.024.012.033.019.084.079.167.16.252.238a.289.289,0,0,1,.066.095q.108.236.22.471a.124.124,0,0,0,.168.07.126.126,0,0,0,.057-.177c-.079-.173-.158-.346-.237-.519a.2.2,0,0,0-.046-.066l-.421-.4a.146.146,0,0,0-.105-.043h-.536a.148.148,0,0,0-.1.037c-.079.067-.158.135-.24.2a1.186,1.186,0,0,1-.256.192l-.471.195a.126.126,0,1,0,.094.231c.165-.068.329-.137.495-.2a.446.446,0,0,0,.122-.073l.262-.219.081-.066v.039c0,.233,0,.466,0,.7a.1.1,0,0,1-.026.069l-.42.512a.175.175,0,0,0-.039.082l-.13.732a.161.161,0,0,0,0,.081.145.145,0,0,0,.148.1.15.15,0,0,0,.132-.135q.057-.329.114-.657a.131.131,0,0,1,.026-.065l.474-.579a.069.069,0,0,1,.006.013c.038.19.074.38.115.569a.541.541,0,0,0,.06.209c.14.2.28.405.422.607a.142.142,0,1,0,.23-.165l-.392-.566a.139.139,0,0,1-.023-.055c-.026-.13-.054-.259-.079-.39a1.914,1.914,0,0,1-.057-.32c0-.216,0-.432,0-.648C641.315,136.7,641.315,136.659,641.315,136.622Zm-.528-.622a.246.246,0,1,0,.247-.245A.248.248,0,0,0,640.786,136Z" transform="translate(-638.753 -135.137)" fill="#fbbe2f"/>
        </g>
      </g>
    </g>
    <g id="Group_9228" data-name="Group 9228" transform="translate(64.578 79.5)">
      <g id="Group_9196" data-name="Group 9196" transform="translate(101 286)">
        <rect id="Rectangle_10628" data-name="Rectangle 10628" width="12.307" height="20.601" rx="3.499" transform="translate(79.852 76.899)" fill="#333"/>
        <rect id="Rectangle_10629" data-name="Rectangle 10629" width="11.057" height="20.601" rx="3.316" transform="translate(65.659 72.562)"/>
        <path id="Rectangle_10630" data-name="Rectangle 10630" d="M3.5,0h5.31a3.5,3.5,0,0,1,3.5,3.5V17.1a3.5,3.5,0,0,1-3.5,3.5H3.5A3.5,3.5,0,0,1,0,17.1V3.5A3.5,3.5,0,0,1,3.5,0Z" transform="translate(12.469 76.899)" fill="#333"/>
        <path id="Path_11985" data-name="Path 11985" d="M274.462,142.017H206.525a5.876,5.876,0,0,0-5.876,5.876v80.119h79.689V147.893A5.876,5.876,0,0,0,274.462,142.017ZM268.349,199H212.812V173.05h55.537Z" transform="translate(-188.18 -142.017)" fill="#d54255"/>
        <path id="Path_11986" data-name="Path 11986" d="M200.649,191.795v37.529h79.689V191.795Zm67.7,32.1H212.812V197.949h55.537Z" transform="translate(-188.18 -166.916)"/>
        <ellipse id="Ellipse_10537" data-name="Ellipse 10537" cx="4.666" cy="5.196" rx="4.666" ry="5.196" transform="translate(65.229 41.719)"/>
        <g id="Group_9176" data-name="Group 9176" transform="translate(19.585 32.692)">
          <rect id="Rectangle_10631" data-name="Rectangle 10631" width="23.37" height="8.261" rx="2.557" transform="translate(39.104 17.959)"/>
          <rect id="Rectangle_10632" data-name="Rectangle 10632" width="23.37" height="8.261" rx="2.557" transform="translate(0 17.959)"/>
          <rect id="Rectangle_10633" data-name="Rectangle 10633" width="17.482" height="4.389" rx="2.195" transform="translate(23.811)"/>
        </g>
        <rect id="Rectangle_10634" data-name="Rectangle 10634" width="79.689" height="37.529" transform="translate(12.469 24.879)" fill="#2f2820" opacity="0.9"/>
        <path id="Path_11987" data-name="Path 11987" d="M205.466,266.883v1.074a2.781,2.781,0,0,0,2.781,2.78h69.312a2.781,2.781,0,0,0,2.78-2.78v-1.074Z" transform="translate(-190.589 -204.475)" fill="#fbbe2f"/>
        <rect id="Rectangle_10635" data-name="Rectangle 10635" width="81.982" height="12.211" rx="2.409" transform="translate(11.323 78.256)" fill="#d54255"/>
        <rect id="Rectangle_10636" data-name="Rectangle 10636" width="19.855" height="9.765" rx="2.476" transform="translate(69.895 68.376)" fill="#fdfdfd"/>
        <rect id="Rectangle_10637" data-name="Rectangle 10637" width="19.855" height="9.765" rx="2.476" transform="translate(14.877 68.376)" fill="#fdfdfd"/>
        <g id="Group_9179" data-name="Group 9179" transform="translate(25.177 68.844)">
          <circle id="Ellipse_10540" data-name="Ellipse 10540" cx="4.013" cy="4.013" r="4.013" transform="translate(0.401 0.401)" fill="#d54255" opacity="0.25"/>
          <path id="Path_11991" data-name="Path 11991" d="M230.489,288.589a4.414,4.414,0,1,1,4.414-4.414A4.419,4.419,0,0,1,230.489,288.589Zm0-8.026a3.612,3.612,0,1,0,3.612,3.612A3.616,3.616,0,0,0,230.489,280.562Z" transform="translate(-226.075 -279.76)" fill="#d45365"/>
        </g>
        <g id="Group_9180" data-name="Group 9180" transform="translate(15.914 68.844)">
          <circle id="Ellipse_10541" data-name="Ellipse 10541" cx="4.013" cy="4.013" r="4.013" transform="translate(0.401 0.401)" fill="#f4ced3"/>
          <path id="Path_11992" data-name="Path 11992" d="M211.955,288.589a4.414,4.414,0,1,1,4.414-4.414A4.419,4.419,0,0,1,211.955,288.589Zm0-8.026a3.612,3.612,0,1,0,3.612,3.612A3.616,3.616,0,0,0,211.955,280.562Z" transform="translate(-207.541 -279.76)" fill="#d45365"/>
        </g>
        <path id="Path_11993" data-name="Path 11993" d="M212.01,286.41a2.181,2.181,0,1,0,2.181-2.181A2.18,2.18,0,0,0,212.01,286.41Z" transform="translate(-193.862 -213.151)" fill="#d54255" opacity="0.9"/>
        <g id="Group_9181" data-name="Group 9181" transform="translate(14.601 1.883)">
          <rect id="Rectangle_10638" data-name="Rectangle 10638" width="74.873" height="6.454" rx="3.227" transform="translate(0.276 0.276)" fill="#f5f5f5"/>
          <path id="Path_11994" data-name="Path 11994" d="M276.958,152.792H208.3a3.385,3.385,0,0,1-3.382-3.382v-.244a3.385,3.385,0,0,1,3.382-3.381h68.662a3.386,3.386,0,0,1,3.382,3.381v.244A3.386,3.386,0,0,1,276.958,152.792ZM208.3,146.337a2.832,2.832,0,0,0-2.829,2.829v.244a2.832,2.832,0,0,0,2.829,2.829h68.662a2.832,2.832,0,0,0,2.829-2.829v-.244a2.832,2.832,0,0,0-2.829-2.829Z" transform="translate(-204.914 -145.785)" fill="#39cff7"/>
        </g>
        <g id="Group_9182" data-name="Group 9182" transform="translate(84.401 3.088)">
          <path id="Path_11995" data-name="Path 11995" d="M344.891,150.571a2.055,2.055,0,1,0,2.055-2.055A2.054,2.054,0,0,0,344.891,150.571Z" transform="translate(-344.73 -148.356)" fill="#ff9800"/>
          <path id="Path_11996" data-name="Path 11996" d="M346.785,152.626A2.215,2.215,0,1,1,349,150.41,2.218,2.218,0,0,1,346.785,152.626Zm0-4.11a1.894,1.894,0,1,0,1.894,1.894A1.9,1.9,0,0,0,346.785,148.516Z" transform="translate(-344.569 -148.195)" fill="#ff9800"/>
        </g>
        <g id="Group_9183" data-name="Group 9183" transform="translate(16.106 3.088)">
          <path id="Path_11997" data-name="Path 11997" d="M208.247,150.571a2.055,2.055,0,1,0,2.055-2.055A2.055,2.055,0,0,0,208.247,150.571Z" transform="translate(-208.087 -148.356)" fill="#ff9800"/>
          <path id="Path_11998" data-name="Path 11998" d="M210.141,152.626a2.215,2.215,0,1,1,2.215-2.216A2.218,2.218,0,0,1,210.141,152.626Zm0-4.11a1.894,1.894,0,1,0,1.894,1.894A1.9,1.9,0,0,0,210.141,148.516Z" transform="translate(-207.926 -148.195)" fill="#ff9800"/>
        </g>
        <rect id="Rectangle_10639" data-name="Rectangle 10639" width="74.873" height="9.732" rx="4.44" transform="translate(14.877 10.62)" fill="#d54255"/>
        <rect id="Rectangle_10640" data-name="Rectangle 10640" width="30.5" height="9.88" rx="2.476" transform="translate(36.921 68.376)" fill="#333"/>
        <g id="Group_9185" data-name="Group 9185" transform="translate(0 24.766)">
          <rect id="Rectangle_10641" data-name="Rectangle 10641" width="8.829" height="21.671" rx="4.015" transform="translate(0 4.214)" fill="#333"/>
          <g id="Group_9184" data-name="Group 9184" transform="translate(3.612)">
            <path id="Path_11999" data-name="Path 11999" d="M184.532,206.619h-1.605v-11.4a3.65,3.65,0,0,1,3.645-3.646h5.212v1.605h-5.212a2.042,2.042,0,0,0-2.04,2.04Z" transform="translate(-182.927 -191.569)" fill="#525252"/>
          </g>
          <circle id="Ellipse_10542" data-name="Ellipse 10542" cx="1.655" cy="1.655" r="1.655" transform="translate(2.759 13.394)" fill="#525252"/>
        </g>
        <g id="Group_9187" data-name="Group 9187" transform="translate(92.158 24.766)">
          <rect id="Rectangle_10642" data-name="Rectangle 10642" width="8.829" height="21.671" rx="4.015" transform="translate(12.469 25.885) rotate(180)" fill="#333"/>
          <g id="Group_9186" data-name="Group 9186">
            <path id="Path_12000" data-name="Path 12000" d="M368.947,206.619h-1.6v-11.4a2.043,2.043,0,0,0-2.04-2.04H360.09v-1.605H365.3a3.649,3.649,0,0,1,3.645,3.646Z" transform="translate(-360.09 -191.569)" fill="#525252"/>
          </g>
          <path id="Path_12001" data-name="Path 12001" d="M376.2,220.023a1.655,1.655,0,1,1-1.655-1.655A1.655,1.655,0,0,1,376.2,220.023Z" transform="translate(-366.495 -204.974)" fill="#525252"/>
        </g>
        <g id="Group_9188" data-name="Group 9188" transform="translate(33.318 12.512)">
          <path id="Path_12002" data-name="Path 12002" d="M246.828,171.832v1.02l-1.047.6h-2.373l-1.047-.6v-5.2l1.047-.6h2.373l1.047.6v1.019h-.9v-.812h-2.661v4.782h2.661v-.812Z" transform="translate(-242.362 -167.05)" fill="#fff"/>
          <path id="Path_12003" data-name="Path 12003" d="M254.367,167.141h.9v6.315h-.9Z" transform="translate(-248.367 -167.096)" fill="#fff"/>
          <path id="Path_12004" data-name="Path 12004" d="M261.037,173.456h-.9v-5.5h-1.8v-.812h4.493v.812h-1.8Z" transform="translate(-250.354 -167.096)" fill="#fff"/>
          <path id="Path_12005" data-name="Path 12005" d="M270.353,170.669l-2.121-3.528h1.011l1.551,2.688h.018l1.561-2.688h1.01l-2.129,3.537v2.778h-.9Z" transform="translate(-255.302 -167.096)" fill="#fff"/>
          <path id="Path_12006" data-name="Path 12006" d="M288.722,170.181v.018l.785.451v2.2l-1.047.6h-3.238v-6.315h3.238l1.047.6v1.985Zm-2.6-.4H288.6v-1.832h-2.481Zm0,2.86H288.6V170.6h-2.481Z" transform="translate(-263.8 -167.096)" fill="#fff"/>
          <path id="Path_12007" data-name="Path 12007" d="M301.781,167.141V172.9l-1.046.6h-2.643l-1.047-.6v-5.756h.9V172.6h2.932v-5.458Z" transform="translate(-269.714 -167.096)" fill="#fff"/>
          <path id="Path_12008" data-name="Path 12008" d="M309.682,167.655l1.047-.6h2.1l1.047.6v.929h-.9v-.722h-2.391v1.913h2.247l1.047.6v2.472l-1.047.6h-2.193l-1.046-.6v-.929h.9v.722h2.481v-1.967h-2.246l-1.047-.6Z" transform="translate(-275.99 -167.05)" fill="#fff"/>
        </g>
        <g id="Group_9189" data-name="Group 9189" transform="translate(14.601 83.082)">
          <rect id="Rectangle_10643" data-name="Rectangle 10643" width="11.829" height="3.812" rx="1.906" transform="translate(0.276 0.276)" fill="#fbbe2f"/>
          <path id="Path_12009" data-name="Path 12009" d="M215.916,312.611h-9.622a1.381,1.381,0,0,1-1.379-1.379v-1.605a1.381,1.381,0,0,1,1.379-1.38h9.622a1.381,1.381,0,0,1,1.379,1.38v1.605A1.381,1.381,0,0,1,215.916,312.611Zm-9.622-3.812a.828.828,0,0,0-.827.827v1.605a.828.828,0,0,0,.827.827h9.622a.828.828,0,0,0,.827-.827v-1.605a.828.828,0,0,0-.827-.827Z" transform="translate(-204.914 -308.246)" fill="#fbbe2f"/>
        </g>
        <g id="Group_9190" data-name="Group 9190" transform="translate(77.645 83.082)">
          <rect id="Rectangle_10644" data-name="Rectangle 10644" width="11.829" height="3.812" rx="1.906" transform="translate(0.276 0.276)" fill="#fbbe2f"/>
          <path id="Path_12010" data-name="Path 12010" d="M342.054,312.611h-9.622a1.381,1.381,0,0,1-1.379-1.379v-1.605a1.381,1.381,0,0,1,1.379-1.38h9.622a1.381,1.381,0,0,1,1.38,1.38v1.605A1.381,1.381,0,0,1,342.054,312.611Zm-9.622-3.812a.828.828,0,0,0-.827.827v1.605a.828.828,0,0,0,.827.827h9.622a.828.828,0,0,0,.828-.827v-1.605a.828.828,0,0,0-.828-.827Z" transform="translate(-331.052 -308.246)" fill="#ff9800"/>
        </g>
        <g id="Group_9195" data-name="Group 9195" transform="translate(37.991 69.453)">
          <g id="Group_9191" data-name="Group 9191">
            <rect id="Rectangle_10646" data-name="Rectangle 10646" width="28.293" height="1.204" fill="#fff"/>
          </g>
          <g id="Group_9192" data-name="Group 9192" transform="translate(0 2.173)">
            <rect id="Rectangle_10647" data-name="Rectangle 10647" width="28.293" height="1.204" fill="#fff"/>
          </g>
          <g id="Group_9193" data-name="Group 9193" transform="translate(0 4.347)">
            <rect id="Rectangle_10648" data-name="Rectangle 10648" width="28.293" height="1.204" fill="#fff"/>
          </g>
          <g id="Group_9194" data-name="Group 9194" transform="translate(0 6.521)">
            <rect id="Rectangle_10649" data-name="Rectangle 10649" width="28.293" height="1.204" fill="#fff"/>
          </g>
        </g>
        <path id="Path_12011" data-name="Path 12011" d="M319.059,229.278h8.776L338.4,191.795h-8.776Z" transform="translate(-247.408 -166.916)" fill="#72e3ff" opacity="0.3"/>
        <path id="Path_12012" data-name="Path 12012" d="M205.185,229.278h32.7l10.562-37.483h-32.7Z" transform="translate(-190.448 -166.916)" fill="#72e3ff" opacity="0.3"/>
        <g id="Group_9202" data-name="Group 9202" transform="translate(70.719 68.844)">
          <g id="Group_9200" data-name="Group 9200" transform="translate(0 0)">
            <ellipse id="Ellipse_10540-2" data-name="Ellipse 10540" cx="4.013" cy="4.013" rx="4.013" ry="4.013" transform="translate(0.401 0.401)" fill="#f4ced3"/>
            <path id="Path_11991-2" data-name="Path 11991" d="M230.489,279.76a4.414,4.414,0,1,1-4.414,4.414A4.419,4.419,0,0,1,230.489,279.76Zm0,8.026a3.612,3.612,0,1,0-3.612-3.612A3.616,3.616,0,0,0,230.489,287.786Z" transform="translate(-226.075 -279.76)" fill="#d84f61"/>
          </g>
          <g id="Group_9201" data-name="Group 9201" transform="translate(9.263 0)">
            <ellipse id="Ellipse_10541-2" data-name="Ellipse 10541" cx="4.013" cy="4.013" rx="4.013" ry="4.013" transform="translate(0.401 0.401)" fill="#f4ced3"/>
            <path id="Path_11992-2" data-name="Path 11992" d="M211.955,279.76a4.414,4.414,0,1,1-4.414,4.414A4.419,4.419,0,0,1,211.955,279.76Zm0,8.026a3.612,3.612,0,1,0-3.612-3.612A3.616,3.616,0,0,0,211.955,287.786Z" transform="translate(-207.541 -279.76)" fill="#d84f61"/>
          </g>
          <path id="Path_12013" data-name="Path 12013" d="M216.371,286.409a2.181,2.181,0,1,0-2.181,2.181A2.18,2.18,0,0,0,216.371,286.409Z" transform="translate(-200.513 -281.995)" fill="#d84f61" opacity="0.9"/>
        </g>
      </g>
    </g>
    <g id="Group_9210" data-name="Group 9210" transform="translate(48.085 -865.67)">
      <rect id="Rectangle_10651" data-name="Rectangle 10651" width="24.294" height="9.611" rx="2" transform="translate(155.478 1310.922)" fill="#fbbe2f"/>
      <path id="Path_12014" data-name="Path 12014" d="M117.428,1392.307a1.419,1.419,0,0,1,1.413,1.422v7.54a1.419,1.419,0,0,1-1.413,1.422H95.183a1.419,1.419,0,0,1-1.413-1.422v-7.54a1.419,1.419,0,0,1,1.413-1.422Zm0-.351H95.183a1.769,1.769,0,0,0-1.762,1.773v7.54a1.769,1.769,0,0,0,1.762,1.773h22.245a1.769,1.769,0,0,0,1.762-1.773v-7.54a1.769,1.769,0,0,0-1.762-1.773Z" transform="translate(61.32 -81.772)" fill="#fbbe2f"/>
      <rect id="Rectangle_10653" data-name="Rectangle 10653" width="7.292" height="1.233" transform="translate(157.24 1313.283)" fill="#333"/>
      <rect id="Rectangle_10658" data-name="Rectangle 10658" width="7.292" height="1.233" transform="translate(163.878 1313.283)" fill="#333"/>
      <rect id="Rectangle_10661" data-name="Rectangle 10661" width="7.292" height="1.233" transform="translate(169.809 1313.283)" fill="#333"/>
      <rect id="Rectangle_10654" data-name="Rectangle 10654" width="7.292" height="1.233" transform="translate(157.24 1315.06)" fill="#333"/>
      <rect id="Rectangle_10657" data-name="Rectangle 10657" width="7.292" height="1.233" transform="translate(163.878 1315.06)" fill="#333"/>
      <rect id="Rectangle_10660" data-name="Rectangle 10660" width="7.292" height="1.233" transform="translate(169.809 1315.06)" fill="#333"/>
      <rect id="Rectangle_10655" data-name="Rectangle 10655" width="7.292" height="1.233" transform="translate(157.24 1316.838)" fill="#333"/>
      <rect id="Rectangle_10656" data-name="Rectangle 10656" width="7.292" height="1.233" transform="translate(163.878 1316.838)" fill="#333"/>
      <rect id="Rectangle_10659" data-name="Rectangle 10659" width="7.292" height="1.233" transform="translate(169.809 1316.838)" fill="#333"/>
      <g id="Group_9208" data-name="Group 9208" transform="translate(165.699 1319.063)">
        <path id="Path_12042" data-name="Path 12042" d="M465.343,1694.877v-.826h.3v.831a.5.5,0,0,1-.988,0v-.831h.3v.826c0,.1.1.151.19.151S465.343,1694.978,465.343,1694.877Z" transform="translate(-464.66 -1694.031)" fill="#333"/>
        <path id="Path_12043" data-name="Path 12043" d="M500.061,1694.425c0-.087-.1-.107-.228-.114-.27-.02-.448-.112-.452-.383-.011-.537.957-.537.95,0h-.3c0-.166-.335-.151-.345,0-.007.094.085.114.2.126.247.027.489.064.489.375,0,.523-1.014.532-1.007-.016h.308C499.671,1694.569,500.061,1694.571,500.061,1694.425Z" transform="translate(-498.011 -1693.525)" fill="#333"/>
        <path id="Path_12044" data-name="Path 12044" d="M532.069,1694.745h-.491l-.073.156h-.311v-.046l.561-1.215h.137l.562,1.215v.046h-.311Zm-.247-.6-.141.327h.285Z" transform="translate(-528.6 -1693.636)" fill="#333"/>
      </g>
      <g id="Group_9209" data-name="Group 9209" transform="translate(163.936 1319.308)">
        <path id="Path_12045" data-name="Path 12045" d="M419.788,1699.815l.117.237.261.038-.189.184.045.26-.234-.123-.234.123.045-.26-.189-.184.261-.038Z" transform="translate(-419.41 -1699.815)" fill="#333"/>
        <path id="Path_12046" data-name="Path 12046" d="M589.788,1699.815l.117.237.261.038-.189.184.045.26-.234-.123-.234.123.045-.26-.189-.184.261-.038Z" transform="translate(-582.785 -1699.815)" fill="#333"/>
      </g>
    </g>
  </g>
</svg>
